<svg width="2555" height="697" viewBox="0 0 2555 697" fill="none" xmlns="http://www.w3.org/2000/svg">
<mask id="path-1-outside-1_1_5922" maskUnits="userSpaceOnUse" x="-0.470069" y="250.916" width="1905.03" height="279" fill="black">
<rect fill="white" x="-0.470069" y="250.916" width="1905.03" height="279"/>
<path d="M64.6248 267.94H118.835L76.9978 467.626H195.368L185.766 512.916H13.5286L64.6248 267.94ZM289.089 267.94H476.081L466.822 313.23H333.698L322.724 365.725H445.898L436.982 407.583H313.808L301.119 467.626H436.302L426.7 512.916H237.993L289.089 267.94ZM613.662 267.94H668.902L709.757 512.916H656.233L648.336 458.363H556.727L525.854 512.916H469.242L613.662 267.94ZM577.996 418.22H643.528L631.509 320.778H630.823L577.996 418.22ZM808.054 267.94H863.637L930.218 442.237H930.904L965.882 267.94H1015.29L963.506 512.916H909.639L842.372 341.021H841.686L806.708 512.916H756.615L808.054 267.94ZM1089.81 267.94H1164.27L1183.16 445.325H1183.84L1278.18 267.94H1353.32L1301.54 512.916H1251.1L1295.68 318.033H1295L1191.4 512.916H1150.23L1126.53 318.033H1125.85L1089.15 512.916H1038.37L1089.81 267.94ZM1568.87 353.03C1568.87 337.933 1564.75 326.611 1556.52 319.063C1548.51 311.286 1537.99 307.397 1524.95 307.397C1511.23 307.397 1499.22 310.6 1488.93 317.004C1478.86 323.18 1470.51 331.3 1463.88 341.364C1457.48 351.2 1452.68 362.294 1449.48 374.645C1446.27 386.768 1444.67 398.663 1444.68 410.328C1444.68 418.791 1445.71 426.797 1447.77 434.345C1450.05 441.894 1453.37 448.641 1457.72 454.588C1462.29 460.307 1468.01 464.882 1474.88 468.313C1481.97 471.744 1490.43 473.459 1500.27 473.459C1507.58 473.459 1514.45 472.201 1520.85 469.685C1527.48 466.94 1533.32 463.395 1538.35 459.049C1543.38 454.474 1547.61 449.213 1551.04 443.266C1554.47 437.319 1556.76 431.143 1557.9 424.739H1611.77C1606.28 441.894 1599.76 456.418 1592.22 468.313C1584.9 480.207 1576.55 489.928 1567.17 497.476C1558.02 504.796 1547.73 510.057 1536.3 513.259C1525.09 516.69 1512.85 518.406 1499.58 518.406C1464.82 518.406 1437.94 509.142 1418.95 490.614C1400.19 472.087 1390.81 445.325 1390.81 410.328C1390.81 390.428 1393.89 371.558 1400.07 353.716C1406.24 335.875 1415.04 320.206 1426.48 306.711C1438.14 292.987 1452.21 282.122 1468.68 274.116C1485.38 266.11 1504.02 262.108 1524.6 262.108C1538.78 262.108 1551.94 264.052 1564.06 267.94C1576.18 271.829 1586.59 277.662 1595.28 285.439C1604.21 292.987 1611.07 302.479 1615.87 313.916C1620.68 325.124 1622.97 338.162 1622.74 353.03H1568.87ZM1709.61 267.94H1807.74C1820.09 267.94 1831.41 269.198 1841.7 271.715C1852.23 274.002 1861.26 277.89 1868.81 283.38C1876.36 288.87 1882.19 296.189 1886.31 305.339C1890.66 314.488 1892.83 325.81 1892.83 339.306C1892.83 352.801 1890.21 364.924 1884.95 375.675C1879.91 386.197 1872.94 395.117 1864.02 402.437C1855.33 409.756 1845.26 415.36 1833.83 419.249C1822.39 423.137 1810.27 425.082 1797.46 425.082H1730.9L1712.38 512.916H1658.86L1709.61 267.94ZM1739.81 383.223H1794.71C1808.43 383.223 1819.18 379.792 1826.96 372.93C1834.97 365.839 1838.97 354.974 1838.97 340.335C1838.97 334.159 1837.82 329.127 1835.53 325.239C1833.47 321.121 1830.61 318.033 1826.96 315.975C1823.29 313.687 1819.18 312.086 1814.6 311.171C1810.26 310.256 1805.68 309.799 1800.88 309.799H1754.9L1739.81 383.223Z"/>
</mask>
<path d="M64.6248 267.94H118.835L76.9978 467.626H195.368L185.766 512.916H13.5286L64.6248 267.94ZM289.089 267.94H476.081L466.822 313.23H333.698L322.724 365.725H445.898L436.982 407.583H313.808L301.119 467.626H436.302L426.7 512.916H237.993L289.089 267.94ZM613.662 267.94H668.902L709.757 512.916H656.233L648.336 458.363H556.727L525.854 512.916H469.242L613.662 267.94ZM577.996 418.22H643.528L631.509 320.778H630.823L577.996 418.22ZM808.054 267.94H863.637L930.218 442.237H930.904L965.882 267.94H1015.29L963.506 512.916H909.639L842.372 341.021H841.686L806.708 512.916H756.615L808.054 267.94ZM1089.81 267.94H1164.27L1183.16 445.325H1183.84L1278.18 267.94H1353.32L1301.54 512.916H1251.1L1295.68 318.033H1295L1191.4 512.916H1150.23L1126.53 318.033H1125.85L1089.15 512.916H1038.37L1089.81 267.94ZM1568.87 353.03C1568.87 337.933 1564.75 326.611 1556.52 319.063C1548.51 311.286 1537.99 307.397 1524.95 307.397C1511.23 307.397 1499.22 310.6 1488.93 317.004C1478.86 323.18 1470.51 331.3 1463.88 341.364C1457.48 351.2 1452.68 362.294 1449.48 374.645C1446.27 386.768 1444.67 398.663 1444.68 410.328C1444.68 418.791 1445.71 426.797 1447.77 434.345C1450.05 441.894 1453.37 448.641 1457.72 454.588C1462.29 460.307 1468.01 464.882 1474.88 468.313C1481.97 471.744 1490.43 473.459 1500.27 473.459C1507.58 473.459 1514.45 472.201 1520.85 469.685C1527.48 466.94 1533.32 463.395 1538.35 459.049C1543.38 454.474 1547.61 449.213 1551.04 443.266C1554.47 437.319 1556.76 431.143 1557.9 424.739H1611.77C1606.28 441.894 1599.76 456.418 1592.22 468.313C1584.9 480.207 1576.55 489.928 1567.17 497.476C1558.02 504.796 1547.73 510.057 1536.3 513.259C1525.09 516.69 1512.85 518.406 1499.58 518.406C1464.82 518.406 1437.94 509.142 1418.95 490.614C1400.19 472.087 1390.81 445.325 1390.81 410.328C1390.81 390.428 1393.89 371.558 1400.07 353.716C1406.24 335.875 1415.04 320.206 1426.48 306.711C1438.14 292.987 1452.21 282.122 1468.68 274.116C1485.38 266.11 1504.02 262.108 1524.6 262.108C1538.78 262.108 1551.94 264.052 1564.06 267.94C1576.18 271.829 1586.59 277.662 1595.28 285.439C1604.21 292.987 1611.07 302.479 1615.87 313.916C1620.68 325.124 1622.97 338.162 1622.74 353.03H1568.87ZM1709.61 267.94H1807.74C1820.09 267.94 1831.41 269.198 1841.7 271.715C1852.23 274.002 1861.26 277.89 1868.81 283.38C1876.36 288.87 1882.19 296.189 1886.31 305.339C1890.66 314.488 1892.83 325.81 1892.83 339.306C1892.83 352.801 1890.21 364.924 1884.95 375.675C1879.91 386.197 1872.94 395.117 1864.02 402.437C1855.33 409.756 1845.26 415.36 1833.83 419.249C1822.39 423.137 1810.27 425.082 1797.46 425.082H1730.9L1712.38 512.916H1658.86L1709.61 267.94ZM1739.81 383.223H1794.71C1808.43 383.223 1819.18 379.792 1826.96 372.93C1834.97 365.839 1838.97 354.974 1838.97 340.335C1838.97 334.159 1837.82 329.127 1835.53 325.239C1833.47 321.121 1830.61 318.033 1826.96 315.975C1823.29 313.687 1819.18 312.086 1814.6 311.171C1810.26 310.256 1805.68 309.799 1800.88 309.799H1754.9L1739.81 383.223Z" fill="white"/>
<path d="M64.6248 267.94L64.6236 256.94H55.6822L53.8565 265.693L64.6248 267.94ZM118.835 267.94L129.601 270.197L132.379 256.94H118.834L118.835 267.94ZM76.9978 467.626L66.2316 465.37L63.4541 478.626H76.999L76.9978 467.626ZM195.368 467.626L206.129 469.909L208.945 456.626H195.367L195.368 467.626ZM185.766 512.916L185.768 523.916H194.679L196.527 515.199L185.766 512.916ZM13.5286 512.916L2.76032 510.669L-0.00271789 523.916H13.5298L13.5286 512.916ZM64.6248 267.94L64.626 278.94H118.836L118.835 267.94L118.834 256.94H64.6236L64.6248 267.94ZM118.835 267.94L108.069 265.684L66.2316 465.37L76.9978 467.626L87.7641 469.883L129.601 270.197L118.835 267.94ZM76.9978 467.626L76.999 478.626H195.37L195.368 467.626L195.367 456.626H76.9967L76.9978 467.626ZM195.368 467.626L184.608 465.344L175.006 510.633L185.766 512.916L196.527 515.199L206.129 469.909L195.368 467.626ZM185.766 512.916L185.765 501.916H13.5274L13.5286 512.916L13.5298 523.916H185.768L185.766 512.916ZM13.5286 512.916L24.2969 515.163L75.3931 270.187L64.6248 267.94L53.8565 265.693L2.76032 510.669L13.5286 512.916ZM289.089 267.94L289.088 256.94H280.147L278.321 265.693L289.089 267.94ZM476.081 267.94L486.858 270.145L489.557 256.94H476.079L476.081 267.94ZM466.822 313.23L466.823 324.23H475.801L477.599 315.434L466.822 313.23ZM333.698 313.23L333.696 302.23H324.759L322.93 310.978L333.698 313.23ZM322.724 365.725L311.957 363.473L309.186 376.725H322.725L322.724 365.725ZM445.898 365.725L456.657 368.018L459.488 354.725H445.897L445.898 365.725ZM436.982 407.583L436.983 418.583H445.886L447.74 409.876L436.982 407.583ZM313.808 407.583L313.806 396.583H304.889L303.045 405.308L313.808 407.583ZM301.119 467.626L290.357 465.351L287.552 478.626H301.12L301.119 467.626ZM436.302 467.626L447.063 469.909L449.879 456.626H436.301L436.302 467.626ZM426.7 512.916L426.701 523.916H435.612L437.461 515.199L426.7 512.916ZM237.993 512.916L227.225 510.669L224.462 523.916H237.994L237.993 512.916ZM289.089 267.94L289.09 278.94H476.082L476.081 267.94L476.079 256.94H289.088L289.089 267.94ZM476.081 267.94L465.303 265.736L456.044 311.026L466.822 313.23L477.599 315.434L486.858 270.145L476.081 267.94ZM466.822 313.23L466.82 302.23H333.696L333.698 313.23L333.699 324.23H466.823L466.822 313.23ZM333.698 313.23L322.93 310.978L311.957 363.473L322.724 365.725L333.491 367.977L344.465 315.482L333.698 313.23ZM322.724 365.725L322.725 376.725H445.899L445.898 365.725L445.897 354.725H322.723L322.724 365.725ZM445.898 365.725L435.139 363.432L426.223 405.291L436.982 407.583L447.74 409.876L456.657 368.018L445.898 365.725ZM436.982 407.583L436.981 396.583H313.806L313.808 407.583L313.809 418.583H436.983L436.982 407.583ZM313.808 407.583L303.045 405.308L290.357 465.351L301.119 467.626L311.882 469.902L324.57 409.859L313.808 407.583ZM301.119 467.626L301.12 478.626H436.303L436.302 467.626L436.301 456.626H301.118L301.119 467.626ZM436.302 467.626L425.541 465.344L415.939 510.633L426.7 512.916L437.461 515.199L447.063 469.909L436.302 467.626ZM426.7 512.916L426.699 501.916H237.992L237.993 512.916L237.994 523.916H426.701L426.7 512.916ZM237.993 512.916L248.761 515.163L299.858 270.187L289.089 267.94L278.321 265.693L227.225 510.669L237.993 512.916ZM613.662 267.94L613.661 256.94H607.377L604.186 262.353L613.662 267.94ZM668.902 267.94L679.752 266.132L678.219 256.94H668.901L668.902 267.94ZM709.757 512.916L709.758 523.916H722.743L720.607 511.108L709.757 512.916ZM656.233 512.916L645.347 514.491L646.711 523.916H656.234L656.233 512.916ZM648.336 458.363L659.222 456.788L657.858 447.363H648.335L648.336 458.363ZM556.727 458.363L556.726 447.363H550.313L547.154 452.944L556.727 458.363ZM525.854 512.916L525.855 523.916H532.269L535.427 518.335L525.854 512.916ZM469.242 512.916L459.766 507.329L449.987 523.916H469.243L469.242 512.916ZM577.995 418.22L568.325 412.976L559.519 429.22H577.997L577.995 418.22ZM643.528 418.22L643.529 429.22H655.968L654.445 416.874L643.528 418.22ZM631.509 320.778L642.426 319.433L641.236 309.778H631.508L631.509 320.778ZM630.823 320.778L630.822 309.778H624.273L621.153 315.535L630.823 320.778ZM613.662 267.94L613.663 278.94H668.903L668.902 267.94L668.901 256.94H613.661L613.662 267.94ZM668.902 267.94L658.052 269.749L698.907 514.724L709.757 512.916L720.607 511.108L679.752 266.132L668.902 267.94ZM709.757 512.916L709.756 501.916H656.232L656.233 512.916L656.234 523.916H709.758L709.757 512.916ZM656.233 512.916L667.12 511.341L659.222 456.788L648.336 458.363L637.449 459.937L645.347 514.491L656.233 512.916ZM648.336 458.363L648.335 447.363H556.726L556.727 458.363L556.729 469.363H648.337L648.336 458.363ZM556.727 458.363L547.154 452.944L516.281 507.497L525.854 512.916L535.427 518.335L566.301 463.781L556.727 458.363ZM525.854 512.916L525.853 501.916H469.241L469.242 512.916L469.243 523.916H525.855L525.854 512.916ZM469.242 512.916L478.718 518.503L623.138 273.527L613.662 267.94L604.186 262.353L459.766 507.329L469.242 512.916ZM577.995 418.22L577.997 429.22H643.529L643.528 418.22L643.527 407.22H577.994L577.995 418.22ZM643.528 418.22L654.445 416.874L642.426 319.433L631.509 320.778L620.592 322.124L632.611 419.565L643.528 418.22ZM631.509 320.778L631.508 309.778H630.822L630.823 320.778L630.824 331.778H631.51L631.509 320.778ZM630.823 320.778L621.153 315.535L568.325 412.976L577.995 418.22L587.666 423.463L640.493 326.022L630.823 320.778ZM808.054 267.94L808.053 256.94H799.124L797.289 265.679L808.054 267.94ZM863.637 267.94L873.913 264.016L871.21 256.94H863.636L863.637 267.94ZM930.218 442.237L919.942 446.161L922.645 453.237H930.219L930.218 442.237ZM930.904 442.237L930.905 453.237H939.916L941.689 444.402L930.904 442.237ZM965.882 267.94L965.88 256.94H956.87L955.097 265.775L965.882 267.94ZM1015.29 267.94L1026.05 270.216L1028.86 256.94H1015.29L1015.29 267.94ZM963.506 512.916L963.507 523.916H972.424L974.268 515.192L963.506 512.916ZM909.639 512.916L899.395 516.924L902.132 523.916H909.64L909.639 512.916ZM842.372 341.021L852.616 337.014L849.88 330.021H842.371L842.372 341.021ZM841.686 341.021L841.685 330.021H832.699L830.907 338.827L841.686 341.021ZM806.708 512.916L806.709 523.916H815.695L817.487 515.111L806.708 512.916ZM756.615 512.916L745.85 510.654L743.065 523.916H756.616L756.615 512.916ZM808.054 267.94L808.055 278.94H863.638L863.637 267.94L863.636 256.94H808.053L808.054 267.94ZM863.637 267.94L853.361 271.865L919.942 446.161L930.218 442.237L940.493 438.312L873.913 264.016L863.637 267.94ZM930.218 442.237L930.219 453.237H930.905L930.904 442.237L930.903 431.237H930.216L930.218 442.237ZM930.904 442.237L941.689 444.402L976.667 270.106L965.882 267.94L955.097 265.775L920.119 440.071L930.904 442.237ZM965.882 267.94L965.883 278.94H1015.29L1015.29 267.94L1015.29 256.94H965.88L965.882 267.94ZM1015.29 267.94L1004.53 265.664L952.744 510.64L963.506 512.916L974.268 515.192L1026.05 270.216L1015.29 267.94ZM963.506 512.916L963.505 501.916H909.638L909.639 512.916L909.64 523.916H963.507L963.506 512.916ZM909.639 512.916L919.882 508.908L852.616 337.014L842.372 341.021L832.129 345.029L899.395 516.924L909.639 512.916ZM842.372 341.021L842.371 330.021H841.685L841.686 341.021L841.687 352.021H842.373L842.372 341.021ZM841.686 341.021L830.907 338.827L795.929 510.722L806.708 512.916L817.487 515.111L852.465 343.216L841.686 341.021ZM806.708 512.916L806.707 501.916H756.614L756.615 512.916L756.616 523.916H806.709L806.708 512.916ZM756.615 512.916L767.38 515.178L818.819 270.202L808.054 267.94L797.289 265.679L745.85 510.654L756.615 512.916ZM1089.81 267.94L1089.81 256.94H1080.88L1079.05 265.679L1089.81 267.94ZM1164.27 267.94L1175.21 266.777L1174.16 256.94H1164.27L1164.27 267.94ZM1183.16 445.325L1172.22 446.488L1173.27 456.325H1183.16L1183.16 445.325ZM1183.84 445.325L1183.84 456.325H1190.45L1193.56 450.49L1183.84 445.325ZM1278.18 267.94L1278.18 256.94H1271.57L1268.47 262.775L1278.18 267.94ZM1353.32 267.94L1364.08 270.216L1366.89 256.94H1353.32L1353.32 267.94ZM1301.54 512.916L1301.54 523.916H1310.45L1312.3 515.192L1301.54 512.916ZM1251.1 512.916L1240.38 510.462L1237.3 523.916H1251.1L1251.1 512.916ZM1295.68 318.033L1306.4 320.488L1309.48 307.033H1295.68L1295.68 318.033ZM1295 318.033L1294.99 307.033H1288.38L1285.28 312.869L1295 318.033ZM1191.4 512.916L1191.4 523.916H1198.01L1201.11 518.08L1191.4 512.916ZM1150.23 512.916L1139.31 514.243L1140.48 523.916H1150.23L1150.23 512.916ZM1126.53 318.033L1137.45 316.707L1136.28 307.033H1126.53L1126.53 318.033ZM1125.85 318.033L1125.84 307.033H1116.72L1115.04 315.997L1125.85 318.033ZM1089.15 512.916L1089.16 523.916H1098.28L1099.96 514.952L1089.15 512.916ZM1038.37 512.916L1027.61 510.654L1024.83 523.916H1038.38L1038.37 512.916ZM1089.81 267.94L1089.82 278.94H1164.27L1164.27 267.94L1164.27 256.94H1089.81L1089.81 267.94ZM1164.27 267.94L1153.33 269.104L1172.22 446.488L1183.16 445.325L1194.1 444.161L1175.21 266.777L1164.27 267.94ZM1183.16 445.325L1183.16 456.325H1183.84L1183.84 445.325L1183.84 434.325H1183.16L1183.16 445.325ZM1183.84 445.325L1193.56 450.49L1287.89 273.106L1278.18 267.94L1268.47 262.775L1174.13 440.159L1183.84 445.325ZM1278.18 267.94L1278.18 278.94H1353.32L1353.32 267.94L1353.32 256.94H1278.18L1278.18 267.94ZM1353.32 267.94L1342.56 265.664L1290.77 510.64L1301.54 512.916L1312.3 515.192L1364.08 270.216L1353.32 267.94ZM1301.54 512.916L1301.53 501.916H1251.1L1251.1 512.916L1251.1 523.916H1301.54L1301.54 512.916ZM1251.1 512.916L1261.82 515.37L1306.4 320.488L1295.68 318.033L1284.96 315.579L1240.38 510.462L1251.1 512.916ZM1295.68 318.033L1295.68 307.033H1294.99L1295 318.033L1295 329.033H1295.68L1295.68 318.033ZM1295 318.033L1285.28 312.869L1181.69 507.752L1191.4 512.916L1201.11 518.08L1304.71 323.197L1295 318.033ZM1191.4 512.916L1191.4 501.916H1150.23L1150.23 512.916L1150.23 523.916H1191.4L1191.4 512.916ZM1150.23 512.916L1161.15 511.59L1137.45 316.707L1126.53 318.033L1115.61 319.36L1139.31 514.243L1150.23 512.916ZM1126.53 318.033L1126.53 307.033H1125.84L1125.85 318.033L1125.85 329.033H1126.53L1126.53 318.033ZM1125.85 318.033L1115.04 315.997L1078.34 510.88L1089.15 512.916L1099.96 514.952L1136.66 320.07L1125.85 318.033ZM1089.15 512.916L1089.15 501.916H1038.37L1038.37 512.916L1038.38 523.916H1089.16L1089.15 512.916ZM1038.37 512.916L1049.14 515.178L1100.58 270.202L1089.81 267.94L1079.05 265.679L1027.61 510.654L1038.37 512.916ZM1568.87 353.03H1557.87L1557.87 364.03H1568.87L1568.87 353.03ZM1556.52 319.063L1548.85 326.953L1548.97 327.064L1549.09 327.171L1556.52 319.063ZM1488.93 317.004L1494.68 326.38L1494.71 326.362L1494.74 326.344L1488.93 317.004ZM1463.88 341.364L1454.7 335.311L1454.68 335.336L1454.66 335.362L1463.88 341.364ZM1449.48 374.645L1460.11 377.455L1460.12 377.43L1460.12 377.406L1449.48 374.645ZM1447.77 434.345L1437.15 437.24L1437.19 437.388L1437.24 437.535L1447.77 434.345ZM1457.72 454.588L1448.84 461.079L1448.98 461.273L1449.13 461.46L1457.72 454.588ZM1474.88 468.313L1469.96 478.151L1470.02 478.183L1470.08 478.214L1474.88 468.313ZM1520.85 469.685L1524.87 479.923L1524.97 479.887L1525.06 479.849L1520.85 469.685ZM1538.35 459.049L1545.54 467.374L1545.64 467.282L1545.75 467.188L1538.35 459.049ZM1551.04 443.266L1541.51 437.769H1541.51L1551.04 443.266ZM1557.9 424.739L1557.9 413.739H1548.69L1547.07 422.805L1557.9 424.739ZM1611.77 424.739L1622.25 428.091L1626.84 413.739H1611.77L1611.77 424.739ZM1592.22 468.313L1582.93 462.419L1582.89 462.483L1582.85 462.548L1592.22 468.313ZM1567.17 497.476L1574.05 506.066L1574.06 506.056L1574.07 506.046L1567.17 497.476ZM1536.3 513.259L1533.33 502.667L1533.2 502.702L1533.07 502.741L1536.3 513.259ZM1418.95 490.614L1411.22 498.44L1411.25 498.463L1411.27 498.487L1418.95 490.614ZM1400.07 353.716L1410.46 357.314L1400.07 353.716ZM1426.48 306.711L1418.1 299.587L1418.09 299.593L1418.09 299.599L1426.48 306.711ZM1468.68 274.116L1463.92 264.197L1463.9 264.21L1463.87 264.223L1468.68 274.116ZM1564.06 267.94L1567.42 257.466L1564.06 267.94ZM1595.28 285.439L1587.95 293.636L1588.06 293.738L1588.18 293.836L1595.28 285.439ZM1615.87 313.916L1605.73 318.176L1605.75 318.213L1605.76 318.249L1615.87 313.916ZM1622.74 353.03L1622.74 364.03H1633.57L1633.74 353.199L1622.74 353.03ZM1568.87 353.03H1579.87C1579.87 335.98 1575.18 321.243 1563.95 310.954L1556.52 319.063L1549.09 327.171C1554.33 331.979 1557.87 339.887 1557.87 353.03H1568.87ZM1556.52 319.063L1564.18 311.173C1553.78 301.068 1540.33 296.397 1524.95 296.397L1524.95 307.397L1524.95 318.397C1535.65 318.397 1543.24 321.504 1548.85 326.953L1556.52 319.063ZM1524.95 307.397L1524.95 296.397C1509.45 296.397 1495.37 300.037 1483.11 307.664L1488.93 317.004L1494.74 326.344C1503.06 321.163 1513 318.397 1524.95 318.397L1524.95 307.397ZM1488.93 317.004L1483.17 307.629C1471.71 314.665 1462.2 323.93 1454.7 335.311L1463.88 341.364L1473.07 347.418C1478.83 338.67 1486.02 331.695 1494.68 326.38L1488.93 317.004ZM1463.88 341.364L1454.66 335.362C1447.56 346.277 1442.3 358.482 1438.83 371.885L1449.48 374.645L1460.12 377.406C1463.05 366.105 1467.4 356.123 1473.1 347.367L1463.88 341.364ZM1449.48 374.645L1438.84 371.836C1435.41 384.808 1433.67 397.646 1433.68 410.328H1444.68H1455.68C1455.67 399.679 1457.13 388.729 1460.11 377.455L1449.48 374.645ZM1444.68 410.328H1433.68C1433.68 419.69 1434.82 428.675 1437.15 437.24L1447.77 434.345L1458.38 431.451C1456.6 424.92 1455.68 417.893 1455.68 410.328H1444.68ZM1447.77 434.345L1437.24 437.535C1439.86 446.184 1443.71 454.063 1448.84 461.079L1457.72 454.588L1466.6 448.098C1463.03 443.219 1460.25 437.603 1458.29 431.155L1447.77 434.345ZM1457.72 454.588L1449.13 461.46C1454.75 468.481 1461.74 474.043 1469.96 478.151L1474.88 468.313L1479.79 458.474C1474.29 455.72 1469.84 452.133 1466.31 447.717L1457.72 454.588ZM1474.88 468.313L1470.08 478.214C1478.99 482.525 1489.17 484.459 1500.27 484.459L1500.27 473.459L1500.26 462.459C1491.69 462.459 1484.94 460.962 1479.67 458.411L1474.88 468.313ZM1500.27 473.459L1500.27 484.459C1508.87 484.459 1517.11 482.974 1524.87 479.923L1520.85 469.685L1516.83 459.447C1511.78 461.428 1506.3 462.459 1500.26 462.459L1500.27 473.459ZM1520.85 469.685L1525.06 479.849C1532.69 476.691 1539.55 472.547 1545.54 467.374L1538.35 459.049L1531.16 450.724C1527.08 454.242 1522.28 457.19 1516.64 459.521L1520.85 469.685ZM1538.35 459.049L1545.75 467.188C1551.63 461.841 1556.58 455.686 1560.57 448.763L1551.04 443.266L1541.51 437.769C1538.65 442.74 1535.13 447.108 1530.95 450.909L1538.35 459.049ZM1551.04 443.266L1560.57 448.763C1564.6 441.774 1567.35 434.399 1568.73 426.672L1557.9 424.739L1547.07 422.805C1546.17 427.887 1544.34 432.864 1541.51 437.769L1551.04 443.266ZM1557.9 424.739L1557.9 435.739H1611.77L1611.77 424.739L1611.77 413.739H1557.9L1557.9 424.739ZM1611.77 424.739L1601.29 421.386C1596.01 437.882 1589.86 451.502 1582.93 462.419L1592.22 468.313L1601.5 474.207C1609.67 461.335 1616.55 445.906 1622.25 428.091L1611.77 424.739ZM1592.22 468.313L1582.85 462.548C1576.08 473.541 1568.53 482.261 1560.27 488.907L1567.17 497.476L1574.07 506.046C1584.57 497.596 1593.71 486.873 1601.59 474.078L1592.22 468.313ZM1567.17 497.476L1560.3 488.887C1552.32 495.27 1543.36 499.857 1533.33 502.667L1536.3 513.259L1539.26 523.852C1552.1 520.257 1563.73 514.322 1574.05 506.066L1567.17 497.476ZM1536.3 513.259L1533.07 502.741C1523.04 505.814 1511.9 507.406 1499.58 507.406L1499.58 518.406L1499.59 529.406C1513.8 529.406 1527.14 527.567 1539.52 523.777L1536.3 513.259ZM1499.58 518.406L1499.58 507.406C1466.76 507.406 1442.99 498.701 1426.63 482.742L1418.95 490.614L1411.27 498.487C1432.89 519.583 1462.87 529.406 1499.59 529.406L1499.58 518.406ZM1418.95 490.614L1426.68 482.789C1410.63 466.937 1401.81 443.382 1401.81 410.328H1390.81H1379.81C1379.81 447.267 1389.75 477.236 1411.22 498.44L1418.95 490.614ZM1390.81 410.328H1401.81C1401.81 391.586 1404.71 373.937 1410.46 357.314L1400.07 353.716L1389.67 350.118C1383.08 369.178 1379.81 389.27 1379.81 410.328H1390.81ZM1400.07 353.716L1410.46 357.314C1416.22 340.671 1424.37 326.213 1434.87 313.823L1426.48 306.711L1418.09 299.599C1405.72 314.2 1396.26 331.079 1389.67 350.118L1400.07 353.716ZM1426.48 306.711L1434.86 313.835C1445.52 301.291 1458.37 291.361 1473.49 284.009L1468.68 274.116L1463.87 264.223C1446.05 272.883 1430.77 284.683 1418.1 299.587L1426.48 306.711ZM1468.68 274.116L1473.44 284.035C1488.49 276.817 1505.48 273.108 1524.6 273.108L1524.6 262.108L1524.6 251.108C1502.56 251.108 1482.26 255.404 1463.92 264.197L1468.68 274.116ZM1524.6 262.108L1524.6 273.108C1537.77 273.108 1549.78 274.912 1560.7 278.415L1564.06 267.94L1567.42 257.466C1554.09 253.192 1539.8 251.108 1524.6 251.108L1524.6 262.108ZM1564.06 267.94L1560.7 278.415C1571.49 281.875 1580.51 286.98 1587.95 293.636L1595.28 285.439L1602.62 277.241C1592.67 268.343 1580.88 261.782 1567.42 257.466L1564.06 267.94ZM1595.28 285.439L1588.18 293.836C1595.7 300.195 1601.56 308.237 1605.73 318.176L1615.87 313.916L1626.02 309.657C1620.58 296.722 1612.72 285.779 1602.39 277.041L1595.28 285.439ZM1615.87 313.916L1605.76 318.249C1609.84 327.759 1611.95 339.208 1611.74 352.861L1622.74 353.03L1633.74 353.199C1633.98 337.117 1631.52 322.489 1625.98 309.583L1615.87 313.916ZM1622.74 353.03L1622.74 342.03H1568.87L1568.87 353.03L1568.87 364.03H1622.74L1622.74 353.03ZM1709.61 267.94L1709.61 256.94H1700.65L1698.84 265.708L1709.61 267.94ZM1841.7 271.715L1839.09 282.4L1839.23 282.433L1839.37 282.463L1841.7 271.715ZM1886.31 305.339L1876.28 309.853L1876.33 309.956L1876.38 310.058L1886.31 305.339ZM1884.95 375.675L1875.06 370.84L1875.04 370.884L1875.02 370.929L1884.95 375.675ZM1864.02 402.437L1857.04 393.933L1856.99 393.978L1856.93 394.023L1864.02 402.437ZM1833.83 419.249L1837.37 429.663L1833.83 419.249ZM1730.9 425.082L1730.9 414.082H1721.97L1720.13 422.811L1730.9 425.082ZM1712.38 512.916L1712.38 523.916H1721.3L1723.14 515.186L1712.38 512.916ZM1658.86 512.916L1648.08 510.683L1645.34 523.916H1658.86L1658.86 512.916ZM1739.81 383.223L1729.04 381.008L1726.32 394.223H1739.82L1739.81 383.223ZM1826.96 372.93L1834.24 381.178L1834.25 381.171L1834.26 381.164L1826.96 372.93ZM1835.53 325.239L1825.7 330.158L1825.86 330.493L1826.05 330.816L1835.53 325.239ZM1826.95 315.975L1821.13 325.303L1821.34 325.438L1821.56 325.562L1826.95 315.975ZM1814.6 311.171L1812.34 321.935L1812.39 321.947L1812.45 321.958L1814.6 311.171ZM1754.9 309.799L1754.9 298.799H1745.93L1744.13 307.584L1754.9 309.799ZM1709.61 267.94L1709.61 278.94H1807.74L1807.74 267.94L1807.73 256.94H1709.61L1709.61 267.94ZM1807.74 267.94L1807.74 278.94C1819.35 278.94 1829.78 280.124 1839.09 282.4L1841.7 271.715L1844.31 261.029C1833.04 258.273 1820.83 256.94 1807.73 256.94L1807.74 267.94ZM1841.7 271.715L1839.37 282.463C1848.63 284.476 1856.2 287.812 1862.34 292.276L1868.81 283.38L1875.28 274.484C1866.32 267.969 1855.83 263.528 1844.04 260.966L1841.7 271.715ZM1868.81 283.38L1862.34 292.276C1868.23 296.556 1872.89 302.314 1876.28 309.853L1886.31 305.339L1896.34 300.825C1891.5 290.065 1884.49 281.184 1875.28 274.484L1868.81 283.38ZM1886.31 305.339L1876.38 310.058C1879.83 317.328 1881.83 326.926 1881.83 339.306H1892.83H1903.83C1903.83 324.695 1901.49 311.648 1896.25 300.619L1886.31 305.339ZM1892.83 339.306H1881.83C1881.83 351.341 1879.5 361.777 1875.06 370.84L1884.95 375.675L1894.83 380.51C1900.91 368.072 1903.83 354.262 1903.83 339.306H1892.83ZM1884.95 375.675L1875.02 370.929C1870.68 380.014 1864.7 387.647 1857.04 393.933L1864.02 402.437L1871 410.941C1881.18 402.588 1889.15 392.38 1894.87 380.421L1884.95 375.675ZM1864.02 402.437L1856.93 394.023C1849.35 400.406 1840.51 405.358 1830.29 408.834L1833.83 419.249L1837.37 429.663C1850.02 425.362 1861.3 419.106 1871.11 410.851L1864.02 402.437ZM1833.83 419.249L1830.29 408.834C1820.06 412.312 1809.14 414.082 1797.46 414.082L1797.46 425.082L1797.46 436.082C1811.4 436.082 1824.73 433.962 1837.37 429.663L1833.83 419.249ZM1797.46 425.082L1797.46 414.082H1730.9L1730.9 425.082L1730.9 436.082H1797.46L1797.46 425.082ZM1730.9 425.082L1720.13 422.811L1701.62 510.646L1712.38 512.916L1723.14 515.186L1741.66 427.352L1730.9 425.082ZM1712.38 512.916L1712.38 501.916H1658.85L1658.86 512.916L1658.86 523.916H1712.38L1712.38 512.916ZM1658.86 512.916L1669.63 515.149L1720.38 270.173L1709.61 267.94L1698.84 265.708L1648.08 510.683L1658.86 512.916ZM1739.81 383.223L1739.82 394.223H1794.71L1794.71 383.223L1794.71 372.223H1739.81L1739.81 383.223ZM1794.71 383.223L1794.71 394.223C1810.23 394.223 1823.88 390.321 1834.24 381.178L1826.96 372.93L1819.68 364.682C1814.49 369.263 1806.63 372.223 1794.71 372.223L1794.71 383.223ZM1826.96 372.93L1834.26 381.164C1845.39 371.298 1849.97 356.911 1849.97 340.335H1838.97H1827.97C1827.97 353.037 1824.54 360.38 1819.67 364.695L1826.96 372.93ZM1838.97 340.335H1849.97C1849.97 332.892 1848.6 325.752 1845.01 319.661L1835.53 325.239L1826.05 330.816C1827.04 332.502 1827.97 335.426 1827.97 340.335H1838.97ZM1835.53 325.239L1845.37 320.319C1842.43 314.434 1838.11 309.627 1832.35 306.387L1826.95 315.975L1821.56 325.562C1823.12 326.44 1824.52 327.808 1825.7 330.158L1835.53 325.239ZM1826.95 315.975L1832.78 306.647C1827.91 303.601 1822.53 301.539 1816.76 300.385L1814.6 311.171L1812.45 321.958C1815.83 322.633 1818.68 323.774 1821.13 325.303L1826.95 315.975ZM1814.6 311.171L1816.87 300.407C1811.72 299.323 1806.38 298.799 1800.88 298.799L1800.88 309.799L1800.88 320.799C1804.98 320.799 1808.79 321.19 1812.34 321.935L1814.6 311.171ZM1800.88 309.799L1800.88 298.799H1754.9L1754.9 309.799L1754.9 320.799H1800.88L1800.88 309.799ZM1754.9 309.799L1744.13 307.584L1729.04 381.008L1739.81 383.223L1750.59 385.438L1765.68 312.014L1754.9 309.799Z" fill="white" mask="url(#path-1-outside-1_1_5922)"/>
<path d="M2443.84 171.813C2444.1 171.625 2443.84 171.246 2443.55 171.389C2413.43 186.49 2153.25 316.121 2098.35 316.121C2043.17 316.121 1967.47 237.87 1959.54 229.505C1959.35 229.308 1959.05 229.504 1959.12 229.766C1961.94 240.402 1986.14 334.824 1972.34 388.559C1958.63 441.892 1873.76 503.12 1862.89 510.777C1862.76 510.868 1862.9 511.074 1863.04 511.011C1875.79 505.485 1979.59 461.698 2030.63 478.572C2082.04 495.571 2159.09 571.096 2167.47 579.409C2167.67 579.603 2167.98 579.433 2167.9 579.171C2164.1 567.501 2128.43 454.946 2151.5 411.27C2174.45 367.817 2416.24 191.816 2443.84 171.813Z" fill="white"/>
</svg>
